<svg width="818" height="352" viewBox="0 0 818 352" fill="none" xmlns="http://www.w3.org/2000/svg">
<path d="M29 263.118L15.2183 263.118L15.2183 263.008L29 253.365L29 251.229L11.3853 251.229L11.3853 253.401L25.2158 253.401L25.2158 253.511L11.3853 263.155L11.3853 265.291L29 265.291L29 263.118ZM16.3047 237.715L16.3047 239.839L23.7632 239.839C25.9238 239.839 27.3398 241.084 27.3398 243.147C27.3398 245.113 26.229 246.077 24.166 246.077L16.3047 246.077L16.3047 248.201L24.5444 248.201C27.4253 248.201 29.2197 246.578 29.2197 243.807C29.2197 241.854 28.4019 240.535 26.937 239.778L26.937 239.729L29 239.729L29 237.715L16.3047 237.715ZM29 234.957L29 232.833L21.041 232.833C19.2832 232.833 17.9648 231.612 17.9648 229.927C17.9648 228.353 18.9658 227.327 20.4917 227.327L29 227.327L29 225.203L20.9312 225.203C19.21 225.203 17.9648 224.019 17.9648 222.334C17.9648 220.662 18.9902 219.698 20.7236 219.698L29 219.698L29 217.574L20.2353 217.574C17.7207 217.574 16.085 219.197 16.085 221.712C16.085 223.494 16.9883 224.983 18.502 225.691L18.502 225.74C16.9639 226.29 16.085 227.571 16.085 229.305C16.085 231.014 16.9883 232.308 18.3311 232.906L18.3311 232.955L16.3047 232.955L16.3047 234.957L29 234.957ZM29.2197 208.553C29.2197 205.306 26.644 203.157 22.6523 203.157C18.6728 203.157 16.085 205.318 16.085 208.516C16.085 210.311 16.9761 211.788 18.4287 212.581L18.4287 212.63L11.3853 212.63L11.3853 214.754L29 214.754L29 212.728L26.8516 212.728L26.8516 212.679C28.3164 211.861 29.2197 210.408 29.2197 208.553ZM17.9526 208.968C17.9526 206.722 19.7715 205.33 22.6523 205.33C25.5576 205.33 27.352 206.722 27.352 208.968C27.352 211.116 25.4844 212.642 22.6523 212.642C19.8325 212.642 17.9526 211.116 17.9526 208.968ZM17.9282 195.906C17.9282 193.904 19.4419 192.574 21.5659 192.525L21.5659 199.422C19.4541 199.288 17.9282 197.896 17.9282 195.906ZM25.3623 192.574C26.5586 192.928 27.3765 194.112 27.3765 195.723C27.3765 198.006 25.7773 199.434 23.3481 199.434L23.2261 199.434L23.2261 190.328L22.4204 190.328C18.5752 190.328 16.085 192.439 16.085 195.87C16.085 199.373 18.7583 201.619 22.7012 201.619C26.6929 201.619 29.2197 199.41 29.2197 195.772C29.2197 193.001 27.584 190.853 25.3623 190.486L25.3623 192.574ZM29 188.179L29 186.055L21.0898 186.055C19.2954 186.055 18.1113 184.981 18.1113 183.333C18.1113 182.82 18.1724 182.369 18.2334 182.198L16.1704 182.198C16.146 182.369 16.085 182.686 16.085 183.052C16.085 184.542 16.9761 185.713 18.3799 186.128L18.3799 186.177L16.3047 186.177L16.3047 188.179L29 188.179ZM29.2197 170.076C29.2197 166.573 26.6929 164.205 22.6523 164.205C18.5996 164.205 16.085 166.573 16.085 170.076C16.085 173.592 18.5996 175.96 22.6523 175.96C26.6929 175.96 29.2197 173.592 29.2197 170.076ZM27.352 170.076C27.352 172.322 25.6431 173.799 22.6523 173.799C19.6616 173.799 17.9526 172.322 17.9526 170.076C17.9526 167.83 19.6616 166.365 22.6523 166.365C25.6431 166.365 27.352 167.83 27.352 170.076ZM29 161.373L29 159.249L18.0503 159.249L18.0503 156.661L16.3047 156.661L16.3047 159.261L14.9009 159.261C13.6435 159.261 13.0332 158.711 13.0332 157.564C13.0332 157.21 13.0698 156.856 13.1064 156.6L11.3852 156.6C11.3364 156.905 11.2876 157.417 11.2876 157.894C11.2876 160.237 12.4473 161.373 14.8887 161.373L16.3047 161.373L16.3047 163.143L18.0503 163.143L18.0503 161.373L29 161.373ZM13.2407 148.653L16.3047 148.653L16.3047 150.545L18.0503 150.545L18.0503 148.653L25.7041 148.653C28.1455 148.653 29.0977 147.75 29.0977 145.418C29.0977 144.917 29.061 144.332 29 144.075L27.2178 144.075C27.2422 144.222 27.2788 144.71 27.2788 144.954C27.2788 146.041 26.7539 146.529 25.5942 146.529L18.0503 146.529L18.0503 144.063L16.3047 144.063L16.3047 146.529L13.2407 146.529L13.2407 148.653ZM16.3047 125.643L16.3047 127.742L26.6318 130.281L26.6318 130.33L16.3047 133.211L16.3047 135.262L26.6318 138.13L26.6318 138.179L16.3047 140.718L16.3047 142.83L29 139.278L29 137.117L19.1733 134.261L19.1733 134.212L29 131.343L29 129.183L16.3047 125.643ZM17.9282 118.807C17.9282 116.805 19.4419 115.474 21.5659 115.425L21.5659 122.322C19.4541 122.188 17.9282 120.796 17.9282 118.807ZM25.3623 115.474C26.5586 115.828 27.3765 117.012 27.3765 118.624C27.3765 120.906 25.7773 122.334 23.3481 122.334L23.2261 122.334L23.2261 113.228L22.4204 113.228C18.5752 113.228 16.085 115.34 16.085 118.77C16.085 122.273 18.7583 124.52 22.7012 124.52C26.6929 124.52 29.2197 122.31 29.2197 118.672C29.2197 115.901 27.584 113.753 25.3623 113.387L25.3623 115.474ZM17.9282 105.989C17.9282 103.987 19.4419 102.657 21.5659 102.608L21.5659 109.505C19.4541 109.371 17.9282 107.979 17.9282 105.989ZM25.3623 102.657C26.5586 103.011 27.3765 104.195 27.3765 105.806C27.3765 108.089 25.7773 109.517 23.3481 109.517L23.2261 109.517L23.2261 100.411L22.4204 100.411C18.5752 100.411 16.085 102.522 16.085 105.953C16.085 109.456 18.7583 111.702 22.7012 111.702C26.6929 111.702 29.2197 109.493 29.2197 105.855C29.2197 103.084 27.584 100.936 25.3623 100.569L25.3623 102.657ZM13.2407 97.5786L16.3047 97.5786L16.3047 99.4707L18.0503 99.4707L18.0503 97.5786L25.7041 97.5786C28.1455 97.5786 29.0976 96.6753 29.0976 94.3437C29.0976 93.8433 29.061 93.2573 29 93.001L27.2178 93.001C27.2422 93.1475 27.2788 93.6357 27.2788 93.8799C27.2788 94.9663 26.7539 95.4546 25.5942 95.4546L18.0503 95.4546L18.0503 92.9888L16.3047 92.9888L16.3047 95.4546L13.2407 95.4546L13.2407 97.5786ZM19.8081 90.938C21.5415 90.938 22.689 89.8394 23.2627 87.6055L23.8364 85.3716C24.2148 83.9434 24.7031 83.4185 25.6064 83.4185C26.7539 83.4185 27.4863 84.4805 27.4863 86.2017C27.4863 87.9229 26.7783 88.9238 25.46 89.1558L25.46 91.2798C27.706 91.0601 29.2197 89.1191 29.2197 86.3359C29.2197 83.3696 27.6572 81.2822 25.4477 81.2822C23.5801 81.2822 22.6523 82.21 22.0054 84.7734L21.5293 86.7388C21.1631 88.1792 20.5771 88.8506 19.6982 88.8506C18.5874 88.8506 17.8184 87.8252 17.8184 86.2749C17.8184 84.7124 18.5752 83.7236 19.7959 83.5771L19.7959 81.5508C17.6475 81.6484 16.085 83.5771 16.085 86.2017C16.085 88.9971 17.6352 90.938 19.8081 90.938Z" fill="#14171A"/>
<path d="M441.897 347V331.363H447.452V329.385H434.146V331.363H439.7V347H441.897ZM448.941 347H451.065V334.305H448.941V347ZM450.003 332.168C450.735 332.168 451.333 331.57 451.333 330.85C451.333 330.118 450.735 329.532 450.003 329.532C449.283 329.532 448.685 330.118 448.685 330.85C448.685 331.57 449.283 332.168 450.003 332.168ZM453.934 347H456.058V339.041C456.058 337.283 457.278 335.965 458.963 335.965C460.538 335.965 461.563 336.966 461.563 338.492V347H463.687V338.931C463.687 337.21 464.871 335.965 466.556 335.965C468.228 335.965 469.192 336.99 469.192 338.724V347H471.316V338.235C471.316 335.721 469.693 334.085 467.178 334.085C465.396 334.085 463.907 334.988 463.199 336.502H463.15C462.601 334.964 461.319 334.085 459.585 334.085C457.876 334.085 456.583 334.988 455.984 336.331H455.936V334.305H453.934V347ZM479.117 335.928C481.119 335.928 482.449 337.442 482.498 339.566H475.601C475.735 337.454 477.127 335.928 479.117 335.928ZM482.449 343.362C482.095 344.559 480.911 345.376 479.3 345.376C477.017 345.376 475.589 343.777 475.589 341.348V341.226H484.695V340.42C484.695 336.575 482.583 334.085 479.153 334.085C475.65 334.085 473.404 336.758 473.404 340.701C473.404 344.693 475.613 347.22 479.251 347.22C482.022 347.22 484.17 345.584 484.537 343.362H482.449Z" fill="#14171A"/>
<path d="M214.573 41.8135H209.344V38.1807H214.302V37.0088H209.344V33.6177H214.573V32.4312H208.025V43H214.573V41.8135ZM216.119 43H217.393V38.2246C217.393 37.1699 218.125 36.3789 219.136 36.3789C220.081 36.3789 220.696 36.9795 220.696 37.895V43H221.971V38.1587C221.971 37.126 222.681 36.3789 223.692 36.3789C224.695 36.3789 225.274 36.9941 225.274 38.0342V43H226.548V37.7412C226.548 36.2324 225.574 35.251 224.065 35.251C222.996 35.251 222.103 35.793 221.678 36.7012H221.648C221.319 35.7783 220.55 35.251 219.51 35.251C218.484 35.251 217.708 35.793 217.349 36.5986H217.32V35.3828H216.119V43ZM231.229 36.3569C232.43 36.3569 233.228 37.2651 233.257 38.5396H229.119C229.2 37.2725 230.035 36.3569 231.229 36.3569ZM233.228 40.8174C233.016 41.5352 232.305 42.0259 231.338 42.0259C229.969 42.0259 229.112 41.0664 229.112 39.6089V39.5356H234.576V39.0522C234.576 36.7451 233.309 35.251 231.25 35.251C229.148 35.251 227.801 36.855 227.801 39.2207C227.801 41.6157 229.126 43.1318 231.309 43.1318C232.972 43.1318 234.261 42.1504 234.48 40.8174H233.228ZM235.865 43H237.139V38.2539C237.139 37.1772 237.784 36.4668 238.772 36.4668C239.08 36.4668 239.351 36.5034 239.454 36.54V35.3022C239.351 35.2876 239.161 35.251 238.941 35.251C238.047 35.251 237.344 35.7856 237.095 36.6279H237.066V35.3828H235.865V43ZM243.226 41.938C241.915 41.938 241.058 40.8687 241.058 39.1621C241.058 37.4556 241.915 36.3716 243.226 36.3716C244.551 36.3716 245.438 37.4849 245.438 39.1621C245.438 40.8394 244.551 41.938 243.226 41.938ZM243.27 45.8711C245.372 45.8711 246.712 44.6626 246.712 42.8462V35.3828H245.496V36.6646H245.474C244.969 35.7783 244.075 35.251 242.999 35.251C241.028 35.251 239.754 36.7744 239.754 39.1621C239.754 41.5278 241.028 43.0586 242.969 43.0586C244.039 43.0586 244.939 42.5166 245.408 41.689H245.438V42.8901C245.438 44.0254 244.639 44.7871 243.321 44.7871C242.369 44.7871 241.614 44.3257 241.365 43.6299L240.054 43.6299C240.267 44.9263 241.592 45.8711 243.27 45.8711ZM251.429 36.3569C252.63 36.3569 253.428 37.2651 253.458 38.5396H249.319C249.4 37.2725 250.235 36.3569 251.429 36.3569ZM253.428 40.8174C253.216 41.5352 252.505 42.0259 251.539 42.0259C250.169 42.0259 249.312 41.0664 249.312 39.6089V39.5356H254.776V39.0522C254.776 36.7451 253.509 35.251 251.451 35.251C249.349 35.251 248.001 36.855 248.001 39.2207C248.001 41.6157 249.327 43.1318 251.509 43.1318C253.172 43.1318 254.461 42.1504 254.681 40.8174H253.428ZM256.065 43H257.339V38.5176C257.339 37.2285 258.123 36.3789 259.324 36.3789C260.496 36.3789 261.075 37.0527 261.075 38.2832V43L262.349 43V38.0562C262.349 36.3276 261.382 35.251 259.712 35.251C258.533 35.251 257.72 35.7783 257.295 36.5986H257.266V35.3828H256.065V43ZM270.303 37.8804C270.142 36.5107 269.007 35.251 267.103 35.251C265 35.251 263.602 36.7891 263.602 39.1914C263.602 41.645 265.008 43.1318 267.117 43.1318C268.846 43.1318 270.12 42.0625 270.318 40.5464H269.065C268.846 41.4619 268.165 42.0112 267.125 42.0112C265.806 42.0112 264.898 40.9639 264.898 39.1914C264.898 37.4629 265.792 36.3716 267.11 36.3716C268.23 36.3716 268.875 37.0527 269.058 37.8804H270.303ZM272.12 45.8491C273.497 45.8491 274.126 45.3145 274.778 43.5347L277.774 35.3828H276.434L274.324 41.7256H274.302L272.193 35.3828H270.831L273.643 43.0073L273.467 43.542C273.174 44.4282 272.779 44.7725 272.068 44.7725C271.907 44.7725 271.709 44.7651 271.57 44.7358V45.8052C271.709 45.8345 271.966 45.8491 272.12 45.8491ZM286.05 43C288.299 43 289.632 41.894 289.632 40.0337C289.632 38.6274 288.709 37.6167 287.273 37.4336V37.375C288.292 37.1919 289.097 36.1665 289.097 35.0679C289.097 33.4858 287.874 32.4312 286.065 32.4312H282.059V43H286.05ZM283.377 33.5957H285.765C287.046 33.5957 287.764 34.1743 287.764 35.2217C287.764 36.3643 286.915 36.9868 285.354 36.9868H283.377V33.5957ZM283.377 41.8354V38.1221H285.728C287.413 38.1221 288.277 38.7446 288.277 39.9678C288.277 41.1909 287.442 41.8354 285.853 41.8354H283.377ZM293.982 36.3569C295.184 36.3569 295.982 37.2651 296.011 38.5396H291.873C291.954 37.2725 292.789 36.3569 293.982 36.3569ZM295.982 40.8174C295.77 41.5352 295.059 42.0259 294.092 42.0259C292.723 42.0259 291.866 41.0664 291.866 39.6089V39.5356H297.33V39.0522C297.33 36.7451 296.062 35.251 294.004 35.251C291.902 35.251 290.555 36.855 290.555 39.2207C290.555 41.6157 291.88 43.1318 294.063 43.1318C295.726 43.1318 297.015 42.1504 297.234 40.8174H295.982ZM301.717 41.938C300.406 41.938 299.549 40.8687 299.549 39.1621C299.549 37.4556 300.406 36.3716 301.717 36.3716C303.042 36.3716 303.929 37.4849 303.929 39.1621C303.929 40.8394 303.042 41.938 301.717 41.938ZM301.761 45.8711C303.863 45.8711 305.203 44.6626 305.203 42.8462V35.3828H303.987V36.6646H303.965C303.46 35.7783 302.566 35.251 301.49 35.251C299.52 35.251 298.245 36.7744 298.245 39.1621C298.245 41.5278 299.52 43.0586 301.46 43.0586C302.53 43.0586 303.431 42.5166 303.899 41.689H303.929V42.8901C303.929 44.0254 303.13 44.7871 301.812 44.7871C300.86 44.7871 300.105 44.3257 299.856 43.6299H298.545C298.758 44.9263 300.083 45.8711 301.761 45.8711ZM306.932 43H308.206V35.3828H306.932V43ZM307.569 34.1011C308.008 34.1011 308.367 33.7422 308.367 33.3101C308.367 32.8706 308.008 32.519 307.569 32.519C307.137 32.519 306.778 32.8706 306.778 33.3101C306.778 33.7422 307.137 34.1011 307.569 34.1011ZM309.927 43H311.202V38.5176C311.202 37.2285 311.985 36.3789 313.187 36.3789C314.358 36.3789 314.937 37.0527 314.937 38.2832V43H316.211V38.0562C316.211 36.3276 315.245 35.251 313.575 35.251C312.396 35.251 311.583 35.7783 311.158 36.5986H311.128V35.3828H309.927V43ZM317.706 37.4849C317.706 38.5249 318.365 39.2134 319.705 39.5576L321.045 39.9019C321.902 40.1289 322.217 40.4219 322.217 40.9639C322.217 41.6523 321.58 42.0918 320.547 42.0918C319.515 42.0918 318.914 41.667 318.775 40.876H317.5C317.632 42.2236 318.797 43.1318 320.467 43.1318C322.247 43.1318 323.499 42.1943 323.499 40.8687C323.499 39.748 322.942 39.1914 321.404 38.8032L320.225 38.5176C319.361 38.2979 318.958 37.9463 318.958 37.4189C318.958 36.7524 319.573 36.291 320.503 36.291C321.441 36.291 322.034 36.7451 322.122 37.4775H323.338C323.279 36.1885 322.122 35.251 320.547 35.251C318.87 35.251 317.706 36.1812 317.706 37.4849Z" fill="#F45D22"/>
<path d="M53 0.5V308H814.5" stroke="black"/>
<path d="M52 211.76H208.602C222.278 212.032 254.732 207.015 275.146 184.763C295.559 162.51 315.672 162.674 334.184 161.856C352.697 161.038 369.007 148.766 388.22 132.405C407.432 116.043 439.253 111.134 461.267 125.451C483.282 139.767 497.591 157.766 520.806 152.857C549.825 146.721 572.34 125.451 589.351 125.451C606.362 125.451 627.376 124.224 642.886 170.446C655.294 207.424 696.755 213.396 715.934 211.76H817" stroke="#2AA3EF" stroke-width="6"/>
<path d="M210.398 213.957L54 212.957V308H818V216.957H717.066C697.912 218.683 656.506 212.383 644.114 173.377C628.624 124.62 607.638 125.914 590.649 125.914C573.66 125.914 551.175 148.351 522.194 154.824C499.009 160.001 484.718 141.016 462.732 125.914C440.747 110.812 408.968 115.99 389.78 133.249C370.593 150.509 354.303 163.453 335.816 164.316C317.328 165.179 297.241 161.007 276.854 184.479C256.467 207.952 224.055 214.245 210.398 213.957Z" fill="#2AA3EF" fill-opacity="0.1"/>
<line x1="215" y1="308" x2="215" y2="73" stroke="#F45D22" stroke-width="2"/>
<path d="M578.573 41.8135H573.344V38.1807H578.302V37.0088H573.344V33.6177H578.573V32.4312H572.025V43H578.573V41.8135ZM580.119 43H581.393V38.2246C581.393 37.1699 582.125 36.3789 583.136 36.3789C584.081 36.3789 584.696 36.9795 584.696 37.895V43H585.971V38.1587C585.971 37.126 586.681 36.3789 587.692 36.3789C588.695 36.3789 589.274 36.9941 589.274 38.0342V43H590.548V37.7412C590.548 36.2324 589.574 35.251 588.065 35.251C586.996 35.251 586.103 35.793 585.678 36.7012H585.648C585.319 35.7783 584.55 35.251 583.51 35.251C582.484 35.251 581.708 35.793 581.349 36.5986H581.32V35.3828H580.119V43ZM595.229 36.3569C596.43 36.3569 597.228 37.2651 597.257 38.5396H593.119C593.2 37.2725 594.035 36.3569 595.229 36.3569ZM597.228 40.8174C597.016 41.5352 596.305 42.0259 595.338 42.0259C593.969 42.0259 593.112 41.0664 593.112 39.6089V39.5356H598.576V39.0522C598.576 36.7451 597.309 35.251 595.25 35.251C593.148 35.251 591.801 36.855 591.801 39.2207C591.801 41.6157 593.126 43.1318 595.309 43.1318C596.972 43.1318 598.261 42.1504 598.48 40.8174H597.228ZM599.865 43H601.139V38.2539C601.139 37.1772 601.784 36.4668 602.772 36.4668C603.08 36.4668 603.351 36.5034 603.454 36.54V35.3022C603.351 35.2876 603.161 35.251 602.941 35.251C602.047 35.251 601.344 35.7856 601.095 36.6279H601.066V35.3828H599.865V43ZM607.226 41.938C605.915 41.938 605.058 40.8687 605.058 39.1621C605.058 37.4556 605.915 36.3716 607.226 36.3716C608.551 36.3716 609.438 37.4849 609.438 39.1621C609.438 40.8394 608.551 41.938 607.226 41.938ZM607.27 45.8711C609.372 45.8711 610.712 44.6626 610.712 42.8462V35.3828H609.496V36.6646H609.474C608.969 35.7783 608.075 35.251 606.999 35.251C605.028 35.251 603.754 36.7744 603.754 39.1621C603.754 41.5278 605.028 43.0586 606.969 43.0586C608.039 43.0586 608.939 42.5166 609.408 41.689H609.438V42.8901C609.438 44.0254 608.639 44.7871 607.321 44.7871C606.369 44.7871 605.614 44.3257 605.365 43.6299L604.054 43.6299C604.267 44.9263 605.592 45.8711 607.27 45.8711ZM615.429 36.3569C616.63 36.3569 617.428 37.2651 617.458 38.5396H613.319C613.4 37.2725 614.235 36.3569 615.429 36.3569ZM617.428 40.8174C617.216 41.5352 616.505 42.0259 615.539 42.0259C614.169 42.0259 613.312 41.0664 613.312 39.6089V39.5356H618.776V39.0522C618.776 36.7451 617.509 35.251 615.451 35.251C613.349 35.251 612.001 36.855 612.001 39.2207C612.001 41.6157 613.327 43.1318 615.509 43.1318C617.172 43.1318 618.461 42.1504 618.681 40.8174H617.428ZM620.065 43H621.339V38.5176C621.339 37.2285 622.123 36.3789 623.324 36.3789C624.496 36.3789 625.075 37.0527 625.075 38.2832V43L626.349 43V38.0562C626.349 36.3276 625.382 35.251 623.712 35.251C622.533 35.251 621.72 35.7783 621.295 36.5986H621.266V35.3828H620.065V43ZM634.303 37.8804C634.142 36.5107 633.007 35.251 631.103 35.251C629 35.251 627.602 36.7891 627.602 39.1914C627.602 41.645 629.008 43.1318 631.117 43.1318C632.846 43.1318 634.12 42.0625 634.318 40.5464H633.065C632.846 41.4619 632.165 42.0112 631.125 42.0112C629.806 42.0112 628.898 40.9639 628.898 39.1914C628.898 37.4629 629.792 36.3716 631.11 36.3716C632.23 36.3716 632.875 37.0527 633.058 37.8804H634.303ZM636.12 45.8491C637.497 45.8491 638.126 45.3145 638.778 43.5347L641.774 35.3828H640.434L638.324 41.7256H638.302L636.193 35.3828H634.831L637.643 43.0073L637.467 43.542C637.174 44.4282 636.779 44.7725 636.068 44.7725C635.907 44.7725 635.709 44.7651 635.57 44.7358V45.8052C635.709 45.8345 635.966 45.8491 636.12 45.8491ZM652.606 41.8135H647.377V38.1807H652.335V37.0088H647.377V33.6177H652.606V32.4312H646.059V43H652.606V41.8135ZM654.152 43H655.426V38.5176C655.426 37.2285 656.21 36.3789 657.411 36.3789C658.583 36.3789 659.162 37.0527 659.162 38.2832V43H660.436V38.0562C660.436 36.3276 659.469 35.251 657.799 35.251C656.62 35.251 655.807 35.7783 655.382 36.5986H655.353V35.3828H654.152V43ZM664.948 43.1318C666.046 43.1318 666.918 42.5898 667.409 41.7109H667.431V43H668.646V32.4312H667.372V36.6206H667.343C666.889 35.7856 666.01 35.251 664.918 35.251C663 35.251 661.688 36.8037 661.688 39.1914C661.688 41.5791 663.007 43.1318 664.948 43.1318ZM665.189 36.3716C666.5 36.3716 667.379 37.4922 667.379 39.1914C667.379 40.8979 666.5 42.0112 665.189 42.0112C663.842 42.0112 662.992 40.9199 662.992 39.1914C662.992 37.4702 663.842 36.3716 665.189 36.3716Z" fill="#28BD66"/>
<line x1="579" y1="308" x2="579" y2="72" stroke="#28BD66" stroke-width="2"/>
</svg>
